# xmcd CD database file
# Copyright (C) 1997 Ti Kan
# 
# Track frame offsets:
#     183
#     31418
#     53580
#     73440
#     108225
#     126200
#     145643
#     179668
#     200485
#     223225
#     252983
#     285083
# 
# Disc length: 4075 seconds
# 
# Revision: 1
# Processed by: cddbd v1.4b41PL1 Copyright (c) Steve Scherf et al.
# Submitted via: DiscPlay 4.0.3
# 
DISCID=b90fe90c
DTITLE=Champion Jack Dupree and Kenn Lending Blues Band - Champion Jack Dupree
DYEAR=1900
DGENRE=
TTITLE0=My Family Gave Me Away
TTITLE1=The Same Old Thing
TTITLE2=Way Down In Louisiana
TTITLE3=A Girl Named Brenda
TTITLE4=I Have No Education
TTITLE5=Susie Cue
TTITLE6=You Can't Put Your Feet On The Ground
TTITLE7=A Little Boogie
TTITLE8=Somebody Has Got To Go
TTITLE9=You Mistreater
TTITLE10=Country Woman
TTITLE11=Funky House
EXTD=
EXTT0=
EXTT1=
EXTT2=
EXTT3=
EXTT4=
EXTT5=
EXTT6=
EXTT7=
EXTT8=
EXTT9=
EXTT10=
EXTT11=
PLAYORDER=
